HIERARCHY
ROOT hip
{
	OFFSET 0.000000 0.000000 0.000000 
	CHANNELS 6 Xposition Yposition Zposition Xrotation Zrotation Yrotation
	JOINT abdomen
	{
		OFFSET 0.000000 3.402643 0.000000 
		CHANNELS 3 Xrotation Zrotation Yrotation
		JOINT chest
		{
			OFFSET 0.000000 8.438565 -0.680529 
			CHANNELS 3 Xrotation Zrotation Yrotation
			JOINT neck
			{
				OFFSET 0.000000 10.207942 -0.272212 
				CHANNELS 3 Xrotation Zrotation Yrotation
				JOINT head
				{
					OFFSET 0.000000 3.130431 0.000000 
					CHANNELS 3 Xrotation Zrotation Yrotation
					End Site
					{
						OFFSET 0.000000 3.130435 0.000000 
					}
				}
			}
			JOINT lCollar
			{
				OFFSET 3.470700 6.669187 -0.816635 
				CHANNELS 3 Yrotation Zrotation Xrotation
				JOINT lShldr
				{
					OFFSET 3.198488 0.000000 0.000000 
					CHANNELS 3 Zrotation Yrotation Xrotation
					JOINT lForeArm
					{
						OFFSET 10.139888 0.000000 0.000000 
						CHANNELS 3 Yrotation Zrotation Xrotation
						JOINT lHand
						{
							OFFSET 8.370511 0.000000 0.000000 
							CHANNELS 3 Zrotation Yrotation Xrotation
							End Site
							{
								OFFSET 4.083176 0.000000 0.000000 
							}
						}
					}
				}
			}
			JOINT rCollar
			{
				OFFSET -3.470700 6.669187 -0.816635 
				CHANNELS 3 Yrotation Zrotation Xrotation
				JOINT rShldr
				{
					OFFSET -3.198488 0.000000 0.000000 
					CHANNELS 3 Zrotation Yrotation Xrotation
					JOINT rForeArm
					{
						OFFSET -10.139888 0.000000 0.000000 
						CHANNELS 3 Yrotation Zrotation Xrotation
						JOINT rHand
						{
							OFFSET -8.370511 0.000000 0.000000 
							CHANNELS 3 Zrotation Yrotation Xrotation
							End Site
							{
								OFFSET -4.083176 0.000000 0.000000 
							}
						}
					}
				}
			}
		}
	}
	JOINT lThigh
	{
		OFFSET 5.308129 -1.633274 1.361059 
		CHANNELS 3 Xrotation Zrotation Yrotation
		JOINT lShin
		{
			OFFSET -2.041588 -20.007561 0.000000 
			CHANNELS 3 Xrotation Zrotation Yrotation
			JOINT lFoot
			{
				OFFSET 0.000000 -19.190928 -1.224953 
				CHANNELS 3 Xrotation Yrotation Zrotation
				End Site
				{
					OFFSET 0.000000 -2.449906 4.627600 
				}
			}
		}
	}
	JOINT rThigh
	{
		OFFSET -5.308129 -1.633274 1.361059 
		CHANNELS 3 Xrotation Zrotation Yrotation
		JOINT rShin
		{
			OFFSET 2.041588 -20.007561 0.000000 
			CHANNELS 3 Xrotation Zrotation Yrotation
			JOINT rFoot
			{
				OFFSET 0.000000 -19.190928 -1.224953 
				CHANNELS 3 Xrotation Yrotation Zrotation
				End Site
				{
					OFFSET 0.000000 -2.449906 4.627600 
				}
			}
		}
	}
}
MOTION
Frames: 6
Frame Time: 0.016667
-0.739081 47.657867 -0.914832 -7.315057 7.959219 4.920646 8.255935 -1.815896 -1.358287 14.348763 -7.500794 2.816218 17.110910 -8.596550 13.522682 -16.878733 1.792751 10.982122 -2.697898 -19.655266 11.681475 -41.974129 -23.046101 -0.427995 -99.848015 5.364332 12.337650 26.836237 -20.090601 12.130016 12.457290 3.897511 13.516576 48.297806 25.175522 4.008657 78.700066 -7.694691 13.751451 -40.375710 22.536760 -19.840031 -13.522168 -0.204718 -6.403654 21.182522 -0.732180 -0.975334 5.243673 -7.628268 -6.010306 8.446025 -10.448578 -9.438903 35.281681 -0.969133 1.402191 -22.709749 -20.387449 8.565636 
-0.942062 47.360821 -1.932422 -7.839974 5.397149 1.992000 8.255935 -1.815896 -1.358287 14.822095 -5.113001 2.323515 19.068539 -6.221142 11.503809 -15.472254 1.444947 9.456247 -3.603269 -17.476151 12.240217 -40.065224 -28.615881 -3.332842 -101.989151 5.125892 12.577571 24.905073 -20.374201 15.537304 11.390258 6.132235 13.457594 46.595959 23.436045 0.246788 78.875786 -7.655030 13.761892 -39.404228 23.236120 -19.310024 -16.747095 2.939276 -5.182710 25.779825 -0.362153 -1.070438 6.999795 -7.342223 -5.914838 6.247040 -8.941634 -9.561693 37.210983 -0.974849 1.297567 -24.552719 -17.036207 7.161638 
-1.031353 47.163063 -2.814177 -7.791713 3.602696 -1.222586 8.255935 -1.815896 -1.358287 14.783441 -3.240950 1.584469 20.317568 -4.253118 9.841477 -14.418618 1.449674 8.254728 -4.738152 -15.862410 12.471841 -37.189743 -33.021244 -7.618293 -104.295052 4.881768 12.633930 24.199486 -20.759615 17.499342 10.222401 7.744926 13.227102 45.793739 21.366991 -4.503660 80.145317 -7.508916 13.843097 -38.672867 23.702442 -20.462467 -19.540539 5.546649 -4.985902 29.272879 -0.362532 -1.241351 9.321051 -6.401910 -5.655790 3.609308 -7.689336 -8.841091 38.437492 -0.958749 1.187529 -25.391397 -14.519319 6.474026 
-1.053490 47.110779 -3.515585 -7.208566 1.909747 -3.849747 8.255935 -1.815896 -1.358287 14.411622 -1.376899 0.507900 21.203709 -2.357127 8.424852 -13.181509 1.276734 7.931840 -6.324209 -14.305438 12.192456 -34.561920 -35.550495 -12.815231 -106.586815 4.607467 12.681449 24.669455 -20.945566 18.184710 8.794563 9.190202 12.552851 45.927216 19.040047 -9.415262 81.960052 -7.288440 13.971900 -37.978676 23.174860 -22.375460 -21.963589 7.458771 -5.676655 30.863539 -0.284597 -1.310479 11.851185 -4.915557 -5.450382 1.521843 -6.625785 -8.220776 38.983757 -0.958725 1.215249 -25.535988 -12.060345 5.796180 
-1.023943 47.199928 -4.028685 -6.165365 0.485496 -6.123240 8.255935 -1.815896 -1.358287 13.535245 0.497953 -1.113239 21.565912 -0.726334 7.393095 -11.952108 0.744094 8.291834 -8.516622 -12.597962 11.480295 -32.559769 -36.545464 -17.937399 -108.533211 4.410518 12.714662 25.266632 -21.599564 18.317192 6.950959 10.647864 11.436800 46.306198 16.576521 -14.164744 83.474068 -7.049328 13.875198 -37.759800 22.740393 -23.216093 -23.806047 9.071528 -7.327693 30.693016 -0.108747 -1.404179 12.786999 -2.420272 -5.096954 -0.225188 -5.432616 -7.794399 38.456646 -0.958514 1.197945 -24.467777 -10.225270 5.479414 
-0.933764 47.378830 -4.368526 -4.445134 -0.744495 -8.076882 8.255935 -1.815896 -1.358287 12.132956 2.564933 -2.961699 21.447115 0.621049 6.445779 -10.547489 -0.125344 9.130879 -11.058143 -10.931201 10.212353 -31.420889 -36.034451 -22.716394 -109.584908 4.316304 12.734635 24.772348 -22.868441 17.979166 5.008298 11.920859 9.750206 47.024666 14.269095 -18.086336 84.061951 -7.009195 14.096460 -39.501457 24.182028 -21.808577 -24.820530 10.477581 -9.818049 28.249142 -0.352991 -0.912442 11.509437 1.491730 -4.892226 -1.746305 -4.261045 -7.941179 36.663578 -0.888479 1.122036 -23.075916 -7.922458 5.147716 
